<?xml version="1.0" encoding="UTF-8"?>
<svg width="200" height="200" version="1.1" viewBox="0 0 52.917 52.917" xmlns="http://www.w3.org/2000/svg" xmlns:cc="http://creativecommons.org/ns#" xmlns:dc="http://purl.org/dc/elements/1.1/" xmlns:rdf="http://www.w3.org/1999/02/22-rdf-syntax-ns#">
<metadata>
<rdf:RDF>
<cc:Work rdf:about="">
<dc:format>image/svg+xml</dc:format>
<dc:type rdf:resource="http://purl.org/dc/dcmitype/StillImage"/>
<dc:title/>
</cc:Work>
</rdf:RDF>
</metadata>
<g transform="translate(0 -244.08)">
<g fill="#fff">
<g transform="matrix(5.6531 0 0 5.6531 -443.66 -556.33)" fill="#fff">
<rect x="86.519" y="141.69" width="1.3229" height="1.3229" style="paint-order:fill markers stroke"/>
<rect x="85.196" y="143.01" width="1.3229" height="1.3229" style="paint-order:fill markers stroke"/>
<rect x="82.55" y="145.66" width="1.3229" height="1.3229" style="paint-order:fill markers stroke"/>
<rect x="81.227" y="146.98" width="1.3229" height="1.3229" style="paint-order:fill markers stroke"/>
<rect x="83.873" y="144.34" width="1.3229" height="1.3229" style="paint-order:fill markers stroke"/>
<rect x="85.196" y="145.66" width="1.3229" height="1.3229" style="paint-order:fill markers stroke"/>
<rect x="83.873" y="146.98" width="1.3229" height="1.3229" style="paint-order:fill markers stroke"/>
<rect x="86.519" y="144.34" width="1.3229" height="1.3229" style="paint-order:fill markers stroke"/>
<rect x="86.519" y="146.98" width="1.3229" height="1.3229" style="paint-order:fill markers stroke"/>
<rect x="79.904" y="148.3" width="1.3229" height="1.3229" style="paint-order:fill markers stroke"/>
<rect x="82.55" y="148.3" width="1.3229" height="1.3229" style="paint-order:fill markers stroke"/>
<rect x="85.196" y="148.3" width="1.3229" height="1.3229" style="paint-order:fill markers stroke"/>
<rect x="78.581" y="149.63" width="1.3229" height="1.3229" style="paint-order:fill markers stroke"/>
<rect x="81.227" y="149.63" width="1.3229" height="1.3229" style="paint-order:fill markers stroke"/>
<rect x="83.873" y="149.63" width="1.3229" height="1.3229" style="paint-order:fill markers stroke"/>
<rect x="86.519" y="149.63" width="1.3229" height="1.3229" style="paint-order:fill markers stroke"/>
</g>
</g>
</g>
</svg>
